PathFileType	4	(X/Y/Z)	65_2_7_p0_0-272_filt_butterworth.trc
DataRate	CameraRate	NumFrames	NumMarkers	Units	OrigDataRate	OrigDataStartFrame	OrigNumFrames
47.0	47.0	7	27	m	47.0	238	272
Frame#	Time	RHip			RKnee			RAnkle			RBigToe			RSmallToe			RHeel			LHip			LKnee			LAnkle			LBigToe			LSmallToe			LHeel			Neck			Head			Nose			RShoulder			RElbow			RWrist			RThumb			RIndex			RPinky			LShoulder			LElbow			LWrist			LThumb			LIndex			LPinky			
		X1	Y1	Z1	X2	Y2	Z2	X3	Y3	Z3	X4	Y4	Z4	X5	Y5	Z5	X6	Y6	Z6	X7	Y7	Z7	X8	Y8	Z8	X9	Y9	Z9	X10	Y10	Z10	X11	Y11	Z11	X12	Y12	Z12	X13	Y13	Z13	X14	Y14	Z14	X15	Y15	Z15	X16	Y16	Z16	X17	Y17	Z17	X18	Y18	Z18	X19	Y19	Z19	X20	Y20	Z20	X21	Y21	Z21	X22	Y22	Z22	X23	Y23	Z23	X24	Y24	Z24	X25	Y25	Z25	X26	Y26	Z26	X27	Y27	Z27	
238	5.0638297872340425	0.4016823938005352	0.659378564474826	0.8888003801717174	0.3702876142058148	0.230978964641537	0.9749902639261463	0.3085377300228348	-0.20859810402233983	0.98693152866942	0.2952792472379551	-0.2552970846031749	0.8699097185586442	0.3595834915477524	-0.2563074019622942	0.8794329119660149	0.276211603327861	-0.27049587939538877	1.0599585796213673	0.17340087593165315	0.6794314364208762	0.9255970460252749	0.13512841949077867	0.256682369680283	0.9651669139689056	0.10519850858450515	-0.20043748986386453	1.0217810663481666	0.12871357229855665	-0.21860182210162582	0.8553251555429079	0.0692031333220661	-0.2091454551571421	0.8894720125908059	0.10590721682883812	-0.23607541740339708	1.0391671578417792	0.3518193088853185	1.2614936882325851	0.8924301355137374	0.3917350783549508	1.5124915447803198	0.8392621981902181	0.35846987356670074	1.382195085962593	0.7542852654083229	0.49360072693901264	1.162938777624331	0.8718853787177514	0.5587582314634888	0.8937212564010647	0.8280338433785258	0.4133943985976102	0.7511165000899388	0.6859520738242875	0.3005913066289734	0.7074879008696127	0.6701475876429327	0.30184599325388745	0.6883716191011191	0.69548258943591	0.32519085512779555	0.6684303672825417	0.6989191067623681	0.18984097263998778	1.2131349150924637	0.8753342615000472	0.0787869032761125	0.9640003561113519	0.848870493567039	0.14501757356845713	0.7916339629651302	0.7023578914764526	0.2345194943756625	0.760874641971102	0.6253538903468868	0.23144668212784963	0.7316375838654792	0.6144439041772687	0.1933362499606891	0.6947950046384502	0.6548421492676302	
239	5.085106382978723	0.39919050185673893	0.6583133274038158	0.8903509650067039	0.3707739087214981	0.2293537416125108	0.9777893255984014	0.3086780933716057	-0.20863817033716814	0.9867795904214081	0.2967866794312025	-0.25703717833409606	0.8723459360637786	0.35954148879991205	-0.2553500645662369	0.8774121873835268	0.27567616951477847	-0.27034648588700894	1.0598666061595994	0.17270045673581322	0.6763391444759913	0.9285668529774762	0.1349506072067074	0.2556134949786548	0.9654945149887173	0.10514916338607944	-0.20000317317238692	1.0221234312686354	0.12864430681059982	-0.21809171054673	0.8551537585808394	0.06894086220166418	-0.20859396368117458	0.8892711609301245	0.10604368664490878	-0.2353473497724038	1.0392714021954386	0.34760413162980774	1.258712260765716	0.8962305271995441	0.38856047915908937	1.512088762201076	0.8407054549021346	0.3540273406902148	1.3786894969136825	0.7580915249398024	0.49023549032027325	1.1613637375953632	0.8744464547964099	0.5463530085858224	0.8947239150889394	0.8166637795880757	0.38974994730125057	0.755461080501288	0.6866933000809045	0.2843395532045553	0.7081416657178154	0.6720536490272754	0.2830468132386454	0.6905538024201142	0.7017554373170412	0.29519431936864393	0.6775881565387887	0.7055436171930615	0.1888022537152527	1.2098689677580936	0.8751093736365332	0.09384019891363324	0.9523705405911762	0.8430689432422774	0.17208581514191756	0.7799130543449637	0.70380424370006	0.26360312698219035	0.751620607098978	0.6333960886081145	0.26704265822314166	0.723444517075234	0.6268726238011215	0.22926502145984418	0.685636045771455	0.6673215605952358	
240	5.1063829787234045	0.39653153858442725	0.6575330882520937	0.8914909399183804	0.37105327911431885	0.2276357735998488	0.9804816186909044	0.30870655041620026	-0.20880516989899972	0.9866611027275751	0.2985287405642222	-0.2586716741611389	0.8745109484697066	0.3595382504742104	-0.25486909451267065	0.8757684123363744	0.275039576573012	-0.27022578229302885	1.0596334711261661	0.17198517036866856	0.6738134630143152	0.9304356140576777	0.13453430189456647	0.25459782051504387	0.9659362906647273	0.10502177503344573	-0.19960625423390826	1.0223852034107188	0.1287168819330964	-0.21838650252309866	0.8555431289283817	0.06875531040901686	-0.20919971502721665	0.8898061131590572	0.10608732392555906	-0.2345469234303864	1.0392490360144964	0.3438055270103779	1.2569431901547565	0.8986266673797885	0.3855011352509172	1.5114982653747633	0.8428582637661444	0.35091291063205987	1.3758185506473366	0.7613490586435372	0.4878980244989379	1.159661025554371	0.8773440973360049	0.5362302206383188	0.8955659805047489	0.8073329589620335	0.37129577174597805	0.7567049797245009	0.6933923162771268	0.27436904547579805	0.7050116909903985	0.677012769580395	0.27114909388248415	0.6888340237646218	0.7084632676450912	0.27551267286090425	0.6818678887905568	0.7162649141750841	0.18770205689688715	1.2067350746756824	0.8749812562763534	0.10678411013170505	0.9423475102411691	0.8400497986141486	0.1926226507375608	0.7694517465253692	0.7078864419992521	0.28419628474008257	0.7404143440033333	0.6446853666007608	0.29314925270812153	0.7143556001196918	0.6439556795972535	0.2571511572551344	0.6771695255929858	0.683060976094439	
241	5.127659574468085	0.39398319213551947	0.657212701710596	0.8921727824651491	0.371174962465641	0.2258151215563602	0.983066161675811	0.30871686739481047	-0.20891629193827382	0.9863936898047457	0.30001867180791175	-0.26010924441253475	0.8763640938244659	0.3594864362147769	-0.2551648407878371	0.8752499630899274	0.2743862857630108	-0.2700419136835541	1.0589779100759082	0.17131300041052452	0.6718869047086297	0.9310450203114381	0.1338747888170234	0.25373284525542783	0.9664645831594616	0.10475443897195502	-0.1991957571512185	1.0225434833196687	0.1288100055257635	-0.21877904967669498	0.8558534618071464	0.06859385415042006	-0.21009965444713674	0.8902680240324655	0.1059398504899724	-0.23365550887945802	1.039261877272744	0.34051617939538337	1.256141120956209	0.8993549363712061	0.3826329061081359	1.5108205037904077	0.8453623800718184	0.34897668752642486	1.3739692219865585	0.7633386174821555	0.48648527175917	1.1580819534791578	0.8796112516766309	0.5292709338236903	0.8959875047386089	0.801069663987497	0.3587921665307001	0.7563866099835834	0.7010419697872484	0.2691206699257511	0.7004711814391712	0.684275339764908	0.2646479247581432	0.685372832844933	0.7153999527081777	0.2656347525015818	0.6823458707197901	0.7269299463618555	0.18677111239630756	1.204029309715671	0.8749049100544076	0.11626932914726879	0.9347847517344043	0.8397405243521133	0.20661266509586057	0.7615385809595387	0.7140428403833959	0.29702915527741525	0.7285395545146506	0.6590733879248443	0.30969669279672296	0.7053005894400173	0.6630478126076912	0.2761293581909007	0.6701535347059536	0.6996810682459964	
242	5.148936170212766	0.391747991937421	0.6574364081651329	0.8923084437055808	0.3711883389891015	0.22387618416451904	0.9855383102219466	0.30872525797120925	-0.20886554483969777	0.985963236488805	0.30084542253041013	-0.26095469724420206	0.8771802029226201	0.3592997918687413	-0.255843230768038	0.8754584307375687	0.27384037549506085	-0.2697753187580331	1.0580480951713829	0.17067714223471933	0.6705100364454082	0.9303782379805372	0.13306898028583075	0.25309008598782745	0.9668928801625398	0.10436983163750269	-0.19874011794598942	1.0226194429655975	0.12884273337924318	-0.21892064070552708	0.8558810613959263	0.06849285181866918	-0.2106952054969233	0.8903352096999974	0.10563885132967495	-0.23274157027900402	1.0393455901667301	0.33791044279500804	1.2559523302934124	0.8987849625213727	0.3800612762485256	1.5102014395002192	0.847941606890201	0.34808260210256026	1.3730192423089005	0.7640247795482078	0.48581399346570275	1.1569696051307945	0.8804872837261583	0.5257115135932603	0.8960208395095528	0.7983268238098662	0.35241334890432274	0.7553568905165298	0.7060398596923148	0.2670064025182482	0.696385735733898	0.6914750167354453	0.2625062807232349	0.682585692136594	0.7208500893179872	0.2638032349009635	0.6796813257841894	0.7364279732990264	0.1861798720707405	1.2020162182279626	0.8749051623656177	0.12169174172192243	0.9308648248212514	0.8408701740277036	0.21407452837641672	0.7572169686725905	0.7207478184782545	0.3021780497396413	0.7177999298692108	0.674453040797279	0.31638887069022675	0.6973832536251025	0.6807005168398231	0.285587562131843	0.6648026226818321	0.7157238441411626	
243	5.170212765957447	0.3898404697580445	0.6580975578379905	0.8918474093161386	0.37117395235465184	0.22184705860538825	0.9878303605657486	0.3086624455482286	-0.20867099146791596	0.9856184106600882	0.30097391475813784	-0.2610452034987928	0.8768014611393258	0.3591227589866332	-0.2564493247033054	0.8757849700155801	0.273442315582297	-0.26946917993459657	1.0572461488834874	0.17002538460706512	0.6696719883613202	0.92870995854023	0.13229158942364827	0.25266816855447555	0.9670958623426148	0.10395307260845535	-0.19822847200879629	1.0226404694809579	0.128852010237755	-0.2188549804246231	0.855857627599969	0.06850257930857043	-0.21094502580460267	0.8903670471805628	0.10527737702551891	-0.23190977676788488	1.0394570442014237	0.3362739834905223	1.2560221148404473	0.8980904610790698	0.37799525705404285	1.509651806317179	0.8503463350399194	0.3481108090061075	1.3725778810422096	0.7638463472034884	0.4856058461921407	1.1566232806973735	0.8797178596212225	0.5250641172085567	0.8957996077820944	0.7986060610039387	0.3518254588257471	0.7536162354035885	0.7086621426013023	0.2666735717480267	0.6932838301709181	0.6969565681934586	0.26360356558258946	0.6809898308845552	0.7243644214886297	0.2671562934281096	0.6743355615675451	0.7452534266900225	0.18596779695197024	1.2008413347126101	0.8749980113013602	0.12332010353661366	0.9308509569243968	0.8420574965912586	0.21548442013311292	0.7564865349950086	0.7262026683480398	0.30034439725729306	0.7100433327135581	0.686399597160619	0.31407326283398224	0.6918924669440716	0.6925772868432882	0.2865164702494487	0.6615176809776553	0.7291775316264246	
244	5.191489361702128	0.3881631178890081	0.6590666798280325	0.8907604191499645	0.37119066318098937	0.21983642688023297	0.9898425486367779	0.3085094978451739	-0.20845496795102916	0.9855720930187234	0.30074490581870766	-0.26076913078029995	0.8761262799967676	0.35912780593827553	-0.2569443159123835	0.8762820025311532	0.2731748310895088	-0.26915011835052227	1.0567338363627576	0.16930925813868977	0.6694037243676922	0.9265678474221336	0.13169910445622715	0.2525597860584732	0.9670311496419868	0.1035906784764241	-0.19770284866725263	1.0225895133693965	0.12887270323430622	-0.21870166581295292	0.8559185864849003	0.06855528326995572	-0.21104764535418966	0.890697750946532	0.10489836668635227	-0.23119247163139386	1.0396060532583822	0.3355663668728503	1.2560446533113852	0.8986301107607171	0.37654437467417123	1.5090405518446535	0.8522474952996221	0.3486148455645135	1.3722755030416034	0.7632270996369453	0.48537845375498745	1.157047466729364	0.8775082811669932	0.5259763721405943	0.8955092782281964	0.8001377225039379	0.3546779415039169	0.7514256039164372	0.7106515770683517	0.2667526706686028	0.6912117128119823	0.6999764584110761	0.26536890060730967	0.680045127956383	0.7260614748596208	0.2715102506009882	0.6685548252888033	0.7517733351021725	0.1859966437183238	1.2004398229156767	0.8751135516504113	0.12270541223245907	0.9331243457485614	0.8427706567339128	0.21362065516992967	0.7580232940293457	0.7291131699085113	0.2953175731985371	0.7064428641764192	0.6912935756671715	0.30752471960823735	0.6894474474382575	0.6960851611478699	0.28322226691771046	0.6604467897720148	0.7376605047143109	
